<?xml version="1.0" encoding="UTF-8"?>
<svg id="Layer_1" xmlns="http://www.w3.org/2000/svg" version="1.1" viewBox="0 0 222.39 213.54">
  <!-- Generator: Adobe Illustrator 30.0.0, SVG Export Plug-In . SVG Version: 2.1.1 Build 123)  -->
  <defs>
    <style>
      .st0 {
        fill: none;
        stroke-width: 15px;
      }

      .st0, .st1 {
        stroke: #000;
        stroke-miterlimit: 10;
      }

      .st1 {
        stroke-width: 6px;
      }
    </style>
  </defs>
  <path class="st0" d="M126.67,205.85c-4.81-.32-11.11-2.52-15.48-2.52s-10.67,2.2-15.48,2.52c-43.14,2.89-82.14-29.51-87.54-72.19-4.61-36.44,15.01-69.42,44.77-84.66,7.77,1.92,16.35,1.73,24.17.12,4.63-.96,7.49-3.42,12.62-1.58,5.49,1.96,4.52,6.56,5.77,10.59,1.56,5.02,6.74,12.44,11.17,16.09,4.3,3.56,5.46,3.03,9.5-.42,4.24-3.6,9.19-10.77,10.7-15.65,1.3-4.19.27-9.15,6.42-10.88,4.55-1.29,7.86,1.03,11.95,1.85,7.88,1.59,16.32,1.81,24.16-.11,14.06,7.16,26.09,18.27,34.29,32.41,33.09,57.06-11.45,128.82-77.02,124.43Z"/>
  <g>
    <path d="M111.48,147.81c4.57,0,8.23-3.66,8.23-8.18,0-2.8-1.37-5.18-3.51-6.71l-25.46-17.99c-2.49-1.78-5.08.81-3.35,3.41l16.93,25.31c1.63,2.49,4.17,4.17,7.17,4.17h-.01Z"/>
    <path class="st1" d="M111.48,191.47c28.62,0,51.84-23.23,51.84-51.84s-23.23-51.84-51.79-51.84c-2.69,0-4.02,1.63-4.02,4.27v16.16c0,2.19,1.52,3.96,3.71,3.96s3.76-1.78,3.76-3.96v-11.59c20.99,1.58,39.7,19.11,39.7,43s-19.31,43.2-43.2,43.2-43.2-19.31-43.2-43.15c0-10.88,3.96-20.59,10.37-28.06,1.52-1.93,1.52-4.52-.15-6.3-1.68-1.78-4.52-1.63-6.35.61-7.78,9.1-12.5,20.84-12.5,33.7,0,28.62,23.23,51.84,51.84,51.84h-.01Z"/>
  </g>
  <path d="M169.74,41.93c-.11.03-.23.06-.34.08-7.84,1.92-16.28,1.7-24.16.11-4.09-.82-7.4-3.14-11.95-1.85-6.15,1.73-5.12,6.69-6.42,10.88-1.51,4.88-6.46,12.05-10.7,15.65-4.04,3.45-5.2,3.98-9.5.42-4.43-3.65-9.61-11.07-11.17-16.09-1.25-4.03-.28-8.63-5.77-10.59-5.13-1.84-7.99.62-12.62,1.58-7.82,1.61-16.4,1.8-24.17-.12-.11-.02-.21-.04-.32-.07-1.58-.4-5.44-1.18-5.13-2.8.09-.43,7.4-4.55,8.45-5.09,13.9-7.12,30.17-9.25,46.2-7.19.95.12,1.95.35,2.98.61.41-1.47.76-2.77,1-3.39,4.36-11.1,15.97-22.18,28.15-23.76,3.64-.48,8.49-.69,11.43,1.58,3.22,2.49,3.57,7.76,1.18,11.02-3.4,4.65-7.66,3.05-12.47,4.5-4.1,1.23-8.33,4.87-10.94,9.1,18.93-1.73,36.22,2.36,51.28,12.43,1.11,1.6-3.79,2.68-5.01,2.99Z"/>
</svg>