<?xml version="1.0" encoding="utf-8"?>
<!-- Generator: Adobe Illustrator 30.0.0, SVG Export Plug-In . SVG Version: 9.03 Build 0)  -->
<svg version="1.1" xmlns="http://www.w3.org/2000/svg" xmlns:xlink="http://www.w3.org/1999/xlink" x="0px" y="0px"
	 viewBox="0 0 1024 1024" style="enable-background:new 0 0 1024 1024;" xml:space="preserve">
<g>
</g>
<g id="Body">
	<path style="fill:#ED1C24;" d="M576.5484009,895.1989136c-20.0644531-1.3348999-46.3443604-10.512085-64.5733948-10.512085
		c-18.2290649,0-44.5091553,9.1771851-64.5736694,10.512085c-179.9545898,12.0554199-342.63974-123.0985107-365.1654663-301.1343994
		C63.005703,442.0581665,144.8488312,304.4850159,268.9901428,240.9127197
		c32.4117126,8.0090332,68.2025146,7.2164612,100.822998,0.5005493c19.3136902-4.0046539,31.243866-14.2661743,52.643219-6.5909119
		c22.9010315,8.1760559,18.8548889,27.3644714,24.0691528,44.1753845
		c6.5073853,20.9403381,28.1152954,51.892395,46.594635,67.1179199
		c17.9370117,14.8502197,22.7760315,12.6394958,39.6284485-1.7519226
		c17.6867065-15.0169983,38.3352661-44.9262085,44.6341553-65.2827454
		c5.4227905-17.478241,1.1263428-38.1682739,26.7803955-45.3849945c18.9799194-5.3810425,32.7872925,4.2966766,49.8484497,7.7172699
		c32.8707886,6.6324005,68.0775146,7.5502472,100.78125-0.4588013
		c58.6500854,29.867218,108.8323364,76.2115479,143.0379639,135.1954041
		C1035.862793,614.1707764,850.0680542,913.5114746,576.5484009,895.1989136z"/>
</g>
</svg>
