<?xml version="1.0" encoding="utf-8"?>
<!-- Generator: Adobe Illustrator 30.0.0, SVG Export Plug-In . SVG Version: 9.03 Build 0)  -->
<svg version="1.1" xmlns="http://www.w3.org/2000/svg" xmlns:xlink="http://www.w3.org/1999/xlink" x="0px" y="0px"
	 viewBox="0 0 1024 1024" style="enable-background:new 0 0 1024 1024;" xml:space="preserve">
<g>
</g>
<g id="Timer">
	<g>
		<path style="fill:#770E12;fill-opacity:0.85;" d="M526.246582,598.1594849
			c19.0811157,0,34.3484497-15.2651978,34.3484497-34.1356812c0-11.6613159-5.7252197-21.6265869-14.6311646-27.9871216
			l-106.223053-75.0565491c-10.3890381-7.4206543-21.202301,3.392395-13.9935303,14.205658l70.6038208,105.5873413
			C503.1358337,591.1619263,513.7372437,598.1594849,526.246582,598.1594849z"/>
		<path style="fill:#770E12;fill-opacity:0.85;" d="M526.246582,780.2883911
			c119.3696289,0,216.2646484-96.8950195,216.2646484-216.2645874c0-119.3694153-96.8950195-216.2642212-216.0527344-216.2642212
			c-11.2373047,0-16.7497864,6.7847595-16.7497864,17.809967v67.4235229c0,9.1169739,6.3607483,16.5378723,15.4777527,16.5378723
			c9.3290405,0,15.6904297-7.4208984,15.6904297-16.5378723v-48.3413391
			c87.5657349,6.5726318,165.5893555,79.7207947,165.5893555,179.3720703
			c0,99.6514282-80.5681763,180.2196045-180.2196655,180.2196045c-99.6512451,0-180.2200928-80.5681763-180.2200928-180.0077515
			c0-45.3729858,16.5378723-85.8695984,43.2526855-117.0369263c6.3607178-8.0570374,6.3607178-18.8700867-0.6359253-26.2909851
			c-6.9968872-7.4208984-18.8700867-6.7847595-26.5031128,2.544342
			c-32.4395447,37.9522705-52.1577454,86.9295654-52.1577454,140.5717163
			C309.9823914,683.3933716,406.8771973,780.2883911,526.246582,780.2883911z"/>
	</g>
</g>
</svg>
