<?xml version="1.0" encoding="utf-8"?>
<!-- Generator: Adobe Illustrator 30.0.0, SVG Export Plug-In . SVG Version: 9.03 Build 0)  -->
<svg version="1.1" xmlns="http://www.w3.org/2000/svg" xmlns:xlink="http://www.w3.org/1999/xlink" x="0px" y="0px"
	 viewBox="0 0 1024 1024" style="enable-background:new 0 0 1024 1024;" xml:space="preserve">
<g>
</g>
<g id="Stems">
	<path style="fill:#FF9444;" d="M652.5664062,401.2647705c-9.9748535,17.2770081-33.2680054,22.5030518-33.2680054,22.5030518
		s-7.1207275-22.7854919,2.854187-40.0625c4.8198242-8.348175,14.3596802-9.5989685,23.0629272-4.8273315
		C653.7371216,383.5499878,657.9934692,391.8648071,652.5664062,401.2647705z"/>
	<path style="fill:#FF9444;" d="M712.1056519,480.5571594c-17.2769775,9.974884-40.0625,2.854187-40.0625,2.854187
		s5.2260742-23.2931519,22.5030518-33.2680359c8.3482056-4.8198242,17.2353516-1.1330872,22.3867798,7.3508911
		C721.9768677,465.8010559,721.5056152,475.1300964,712.1056519,480.5571594z"/>
	<path style="fill:#FF9444;" d="M399.9887085,733.5036011c9.974884-17.2769775,33.2680359-22.5030518,33.2680359-22.5030518
		s7.120697,22.7855225-2.854187,40.0625c-4.8198242,8.3482056-14.3597107,9.598999-23.0629578,4.8273315
		C398.8180237,751.2183838,394.5616455,742.9035645,399.9887085,733.5036011z"/>
	<path style="fill:#FF9444;" d="M340.4494934,654.2112427c17.2769775-9.9749146,40.0624695-2.854187,40.0624695-2.854187
		s-5.2260437,23.2931519-22.5030518,33.2680054c-8.348175,4.8198242-17.2353516,1.1331177-22.3867798-7.3508911
		C330.5782471,668.9673462,331.0494995,659.6383057,340.4494934,654.2112427z"/>
	<path style="fill:#FF9444;" d="M322.232605,546.8530884c19.9497681,0,36.1222229,17.5593872,36.1222229,17.5593872
		s-16.1724548,17.5594482-36.1221924,17.5594482c-9.639679,0-15.4928284-7.6363525-15.7121277-17.5593872
		C306.3058167,554.6965942,311.3784485,546.8530884,322.232605,546.8530884z"/>
	<path style="fill:#FF9444;" d="M336.8845215,480.9456787c17.2769775,9.974884,40.0624695,2.854187,40.0624695,2.854187
		s-5.2260437-23.2931519-22.5030518-33.2680359c-8.348175-4.8198242-17.2353516-1.1330872-22.3867798,7.3508911
		C327.0132751,466.1895752,327.4845581,475.5185852,336.8845215,480.9456787z"/>
	<path style="fill:#FF9444;" d="M543.8064575,770.5651245c0-19.949707-17.5594482-36.1221924-17.5594482-36.1221924
		s-17.5594482,16.1724854-17.5594482,36.1221924c0,9.6397095,7.6364136,15.4928589,17.5594482,15.7120972
		C535.9628906,786.4919434,543.8064575,781.4193115,543.8064575,770.5651245z"/>
	<path style="fill:#FF9444;" d="M649.0014648,733.1151123c-9.9749146-17.2770386-33.2680664-22.5030518-33.2680664-22.5030518
		s-7.1206665,22.7854614,2.854187,40.062439c4.8198242,8.3482056,14.3597412,9.598999,23.0629883,4.8273926
		C650.1721191,750.829895,654.4285278,742.5150757,649.0014648,733.1151123z"/>
	<path style="fill:#FF9444;" d="M708.5406494,653.8226929c-17.2769775-9.9748535-40.062439-2.854187-40.062439-2.854187
		s5.2260132,23.2931519,22.5030518,33.2680054c8.3481445,4.8198853,17.2353516,1.1331177,22.3867798-7.3508301
		C718.4119263,668.5787964,717.9406128,659.2497559,708.5406494,653.8226929z"/>
	<path style="fill:#FF9444;" d="M726.7575684,546.4645386c-19.9497681,0-36.1222534,17.5594482-36.1222534,17.5594482
		s16.1724854,17.5594482,36.1221924,17.5594482c9.6397095,0,15.4928589-7.6364136,15.7121582-17.5594482
		C742.6843262,554.3081055,737.6116943,546.4645386,726.7575684,546.4645386z"/>
</g>
</svg>
