<?xml version="1.0" encoding="utf-8"?>
<!-- Generator: Adobe Illustrator 30.0.0, SVG Export Plug-In . SVG Version: 9.03 Build 0)  -->
<svg version="1.1" xmlns="http://www.w3.org/2000/svg" xmlns:xlink="http://www.w3.org/1999/xlink" x="0px" y="0px"
	 viewBox="0 0 1024 1024" style="enable-background:new 0 0 1024 1024;" xml:space="preserve">
<g>
</g>
<g id="Apex">
	<path style="fill:#39B454;" d="M782.4595947,246.9363708c-0.5080566,0.1203461-1.0623779,0.2409515-1.5707397,0.3213501
		c-36.2165527,7.7107086-75.2050171,6.8270569-111.6065674,0.4416962
		c-18.8937988-3.2931671-34.1842651-12.6104126-55.2028198-7.4298096
		c-28.409668,6.9479065-23.6517334,26.8672943-29.6569824,43.6944733
		c-6.9754639,19.5982971-29.84198,48.3934326-49.4285278,62.8510742
		c-18.6625977,13.8553467-24.0213623,15.9837341-43.8850708,1.6866455
		c-20.4642639-14.6583557-44.3931274-44.4575195-51.5995178-64.6178589
		c-5.774353-16.1847534-1.2935791-34.6584015-26.65448-42.5299225c-23.6979675-7.3893738-36.9096375,2.4899139-58.2978516,6.3453979
		c-36.1243591,6.4657593-75.7595825,7.2288208-111.652771-0.4819031c-0.5083618-0.0803986-0.9701996-0.1607971-1.4782715-0.2811432
		c-7.2988586-1.6065216-25.1299896-4.7388916-23.6979523-11.2448578
		c0.4155884-1.7268677,34.1842651-18.2731476,39.0346527-20.4417267
		c64.2106323-28.5941467,139.3696899-37.1483307,213.420105-28.8753052
		c4.3882751,0.4819031,9.0077515,1.4057617,13.7659607,2.4497223c1.8938599-5.9034576,3.5108337-11.1242523,4.6194763-13.6141663
		c20.1408691-44.5781403,73.7729492-89.0756378,130.038208-95.4210434
		c16.8150024-1.9278641,39.2196655-2.7710724,52.8009033,6.3454056c14.8746338,9.9998856,16.491333,31.1642227,5.4509888,44.256546
		c-15.7063599,18.6746521-35.385376,12.2488556-57.6051025,18.0721588
		c-18.9397583,4.9398804-38.4803467,19.558075-50.5371094,36.5460663
		c87.4467163-6.9479065,167.317749,9.4777832,236.887146,49.919281
		C810.730835,241.3540192,788.0952148,245.6914062,782.4595947,246.9363708z"/>
</g>
</svg>
